<svg width="127" height="51" viewBox="0 0 127 51" fill="none" xmlns="http://www.w3.org/2000/svg">
<path d="M30.9299 3.93019C30.9599 4.17019 30.8699 4.35019 30.6599 4.44019C30.4799 4.50019 30.2399 4.47019 30.1799 4.23019C29.9399 3.69019 29.5799 3.51019 29.0099 3.60019C28.5599 3.63019 28.0499 3.66019 27.5999 3.78019C26.9099 3.99019 26.1599 4.11019 25.4399 4.14019C25.1999 4.17019 25.0499 4.23019 25.0199 4.50019C25.0199 4.77019 24.8099 4.89019 24.6899 5.10019C24.1499 6.09019 23.8799 7.20019 23.3699 8.22019C22.9799 9.12019 22.5299 10.0202 22.1099 10.8902C21.9599 11.1602 21.8699 11.4602 21.8399 11.7602C21.8399 12.1202 21.5999 12.4502 21.4199 12.7202C21.2699 12.9002 21.1799 13.0202 21.1499 13.2302C20.9399 14.1602 20.4899 15.0302 20.1299 15.8702C19.7999 16.7102 19.5299 17.5502 19.2599 18.4202C18.9299 19.4402 18.5699 20.4302 18.0299 21.3302C17.9099 21.5402 17.7899 21.7802 17.7599 22.0202C17.6099 22.5902 17.4599 23.1902 17.1899 23.7602C17.8499 23.5802 18.5099 23.3702 19.1699 23.1602C20.2799 22.8302 21.4499 22.7402 22.5599 22.5602C23.1599 22.4702 23.7599 22.3202 24.3299 22.2602C25.1999 22.1702 26.0399 22.1702 26.9099 22.0502C27.4499 21.9902 27.9899 22.0202 28.5299 21.9602C28.7999 21.9302 28.9199 22.0802 29.0099 22.2902C29.1299 22.5002 29.1899 22.7402 29.0099 22.9502C28.7399 23.2202 28.3499 23.5202 28.2299 23.1602C28.1999 23.0102 28.1399 22.9202 27.9599 22.9202C27.3299 23.0402 26.7599 22.9202 26.1299 22.9502C24.3599 23.1302 22.5899 23.1902 20.8499 23.6102C19.6499 23.9402 18.3899 24.0902 17.1599 24.4802C16.8299 24.5402 16.6499 24.7202 16.5299 25.0202C16.1099 26.0102 15.7199 26.6102 15.2699 27.5702C14.7899 28.7402 14.0399 29.7002 13.4099 30.7802C12.5099 32.2802 11.3999 33.6302 10.1999 34.8902C9.02994 36.1202 7.76994 37.2602 6.38994 38.2502C5.75994 38.7002 5.15994 39.2102 4.49994 39.6302C3.62994 40.2002 2.60994 40.4102 1.58994 40.5302C0.989941 40.5902 0.569941 40.2902 0.329941 39.6602C-5.85909e-05 38.7002 0.0899414 37.8002 0.599941 36.8702C1.07994 35.9702 1.61994 35.0702 2.12994 34.1402C2.33994 33.7502 2.63994 33.3902 2.93994 33.0302C4.01994 31.8002 5.09994 30.6002 6.32994 29.4902C6.59994 29.2202 6.92994 29.0102 7.25994 28.8302C7.76994 28.5002 8.21994 28.0202 8.75994 27.6902C9.50994 27.2402 10.1399 26.5802 10.9199 26.2202L13.2599 25.1702C13.8299 24.9602 14.3399 24.6002 14.8799 24.4202C15.2399 24.3002 15.6299 24.2102 16.0499 24.1202C16.1999 24.0902 16.3499 23.9702 16.3799 23.8202C16.5899 23.0402 16.8599 22.3202 17.2799 21.6902C17.5199 21.3302 17.4899 20.9102 17.6099 20.5502C18.1799 18.9302 18.8699 17.3402 19.4999 15.7502C19.6499 15.3302 19.7999 14.8802 19.9199 14.4302C20.0399 13.9802 20.2499 13.6502 20.4599 13.2602C20.6399 12.9602 20.7899 12.6602 20.7899 12.2702C20.7899 12.0602 20.8499 11.8502 20.9699 11.7002C21.3899 11.1002 21.5399 10.4102 21.7799 9.78019C21.9299 9.24019 22.1099 8.70019 22.1999 8.16019C22.2899 7.56019 22.4999 7.02019 22.7999 6.51019C23.0099 6.06019 23.1299 5.55019 23.2499 5.04019C23.3099 4.77019 23.2199 4.68019 22.9499 4.77019C22.4999 4.89019 22.0799 5.01019 21.5699 4.92019C21.2699 4.86019 20.9399 5.04019 20.6399 5.10019C19.9799 5.28019 19.3199 5.31019 18.7199 5.55019C18.0299 5.82019 17.3099 5.88019 16.6199 6.06019C15.9599 6.21019 15.3299 6.45019 14.6699 6.60019C13.4099 6.87019 12.1199 7.20019 10.8899 7.53019C10.7399 7.56019 10.5599 7.59019 10.4099 7.65019C9.77994 7.71019 9.20994 8.04019 8.66994 8.25019C7.64994 8.64019 6.65994 8.97019 5.63994 9.24019C5.18994 9.36019 4.79994 9.45019 4.46994 9.78019C4.16994 10.0502 3.74994 10.1402 3.35994 10.3202C3.08994 10.3802 2.90994 10.5602 2.75994 10.8002C2.57994 11.1302 1.94994 11.2802 1.55994 11.0702C1.19994 10.8902 0.959941 10.4102 1.07994 10.0802C1.25994 9.63019 1.61994 9.33019 2.06994 9.3002C2.57994 9.21019 2.99994 9.09019 3.44994 8.85019C3.71994 8.67019 4.01994 8.64019 4.34994 8.64019C4.73994 8.64019 5.06994 8.4602 5.39994 8.28019C6.26994 7.83019 7.16994 7.5002 8.12994 7.35019C9.38994 7.20019 10.6199 6.81019 11.7899 6.3902C12.1199 6.27019 12.4799 6.21019 12.8099 6.12019C13.7699 5.9702 14.6999 5.55019 15.6299 5.43019C16.4399 5.37019 17.1899 5.01019 17.9699 4.95019C18.7799 4.95019 19.5299 4.80019 20.3099 4.62019C20.7599 4.56019 21.2099 4.44019 21.6299 4.23019C22.1099 3.99019 22.5899 3.90019 23.0999 3.84019C23.2799 3.84019 23.4599 3.72019 23.5499 3.51019C23.9099 2.82019 24.5999 2.76019 25.1099 3.39019C25.1999 3.51019 25.2899 3.51019 25.4399 3.48019C26.5799 3.03019 27.8099 3.12019 28.9799 2.94019C29.2799 2.88019 29.5499 2.88019 29.8199 2.88019C30.3599 2.82019 30.8999 3.39019 30.9299 3.93019ZM14.8799 26.7302C15.1799 26.2202 15.3899 25.6202 15.6299 25.0202C15.4499 25.0202 15.3299 25.1102 15.2399 25.1402C14.8199 25.3802 14.3699 25.5602 13.8599 25.6502C13.5599 25.7102 13.1999 25.8302 12.8399 26.0102C11.8799 26.4302 11.0099 27.0902 10.0199 27.5702C9.47994 27.8402 9.02994 28.2302 8.54994 28.5902C7.73994 29.1002 7.10994 29.8502 6.32994 30.5102C5.51994 31.2002 4.76994 31.9202 4.13994 32.7902C3.68994 33.4202 3.23994 34.0502 2.75994 34.5902C1.97994 35.5802 1.43994 36.6902 1.19994 37.9202C1.13994 38.3702 1.07994 38.8202 1.37994 39.1202C1.67994 39.4802 2.18994 39.6602 2.72994 39.6002C3.38994 39.5102 3.95994 39.0602 4.58994 38.7602C6.05994 37.8902 7.19994 36.6902 8.54994 35.6402C8.99994 35.2502 9.32994 34.7402 9.71994 34.3202C10.1699 33.9002 10.5599 33.4802 10.9499 33.0002C11.9099 31.8302 12.8699 30.6302 13.5899 29.1902C13.9199 28.3502 14.3999 27.5402 14.8799 26.7302ZM29.4937 23.5802C30.3637 22.5002 31.3537 21.3902 32.4937 20.5202C32.8237 20.2802 33.1837 20.1602 33.5137 19.9202C33.6937 19.8302 33.9037 19.8902 33.9937 20.0702C34.1137 20.2202 34.1737 20.4302 33.9937 20.6102C33.8437 20.7602 33.6637 20.8802 33.4837 20.9702C32.9437 21.2702 32.4937 21.5702 32.1037 22.0502C32.0137 22.1402 31.9237 22.2002 31.9237 22.3202C32.5537 22.0802 33.2137 22.2002 33.8437 22.3802C34.9537 22.6502 36.9337 22.4102 37.9837 22.0502L38.5237 21.8402C39.1837 22.0502 39.0637 22.5302 38.5237 22.7702C37.5337 23.0702 35.5837 23.1602 34.5337 23.2802C34.1137 23.3702 34.0837 23.4002 34.2337 23.7602C34.5937 24.5702 34.4437 25.3502 33.9037 26.0402C33.1237 27.1502 32.1937 28.1702 31.3237 29.2502C30.8137 29.8802 30.2437 30.3902 29.4637 30.6302C28.4737 30.9302 27.6337 30.4202 27.6637 29.4002C27.7237 28.2902 27.8737 27.2102 28.3537 26.2202C28.3537 26.1902 28.3837 26.1302 28.4137 26.1002C28.6237 25.2002 28.9537 24.3602 29.4937 23.5802ZM33.3037 25.8302C33.8137 25.0802 33.6937 24.3002 33.0937 23.7002C32.8537 23.5202 32.6737 23.5202 32.4637 23.5202C31.8337 23.4302 31.5637 23.0402 31.8337 22.4702L31.9237 22.3202C31.3237 22.7402 30.8737 23.2502 30.4837 23.8502C29.7937 24.8702 29.0437 25.8602 28.7437 27.0902C28.5637 27.8102 28.4137 28.5002 28.5037 29.2202C28.5637 29.6402 28.7737 29.7902 29.2237 29.7302C30.2737 29.6102 30.8737 28.8602 31.5337 28.2002C32.2537 27.5102 32.7937 26.6402 33.3037 25.8302ZM49.4981 22.5902C49.6181 22.8302 49.4681 23.0402 49.1381 23.2202C48.9281 23.3402 48.6581 23.4902 48.4181 23.5502C47.8781 23.6702 47.3981 23.9402 46.9181 24.2702C45.8981 24.9602 44.8781 25.5602 43.7681 26.0702C43.2281 26.3102 42.7481 26.6402 42.2681 26.9702L40.9481 27.8702C40.7681 27.9902 40.7381 28.0802 40.8281 28.2602C41.2481 29.0102 41.0081 29.8202 40.2581 30.2102C39.9281 30.3602 39.7481 30.6902 39.4781 30.9002C39.1481 31.1702 38.7581 31.3802 38.5481 31.8002C38.4581 32.0102 38.1581 32.1302 37.9181 32.2202C37.1381 32.4602 36.3881 32.8202 35.6681 33.2402C35.2181 33.5402 34.6781 33.6002 34.1081 33.6302C33.7481 33.6302 33.6881 33.3002 33.5381 33.0602C33.4181 32.8802 33.4781 32.7002 33.6281 32.5502C33.9881 32.1002 34.3181 31.6802 34.6481 31.2002C34.8881 30.8702 35.3081 30.6302 35.6681 30.4202C36.1781 30.1202 36.6281 29.7902 37.0781 29.4002C37.7081 28.8602 38.3681 28.3802 39.1181 28.0202C39.6581 27.7802 39.6881 27.6602 39.2081 27.3002C38.2781 26.6402 38.1581 25.6802 38.0681 24.6602C37.9481 23.4302 38.6381 22.6502 39.4481 21.9002C40.0481 21.3602 40.7381 21.0302 41.4881 20.8202C41.7581 20.7302 41.9981 20.7302 42.2681 20.7902C42.5681 20.8502 42.7481 21.0902 42.7781 21.4502C42.7781 21.8102 42.6581 22.0202 42.3281 22.1102C42.1481 22.1702 41.9681 22.2002 41.6981 22.2002C41.2181 22.0202 40.7081 22.2902 40.2281 22.4702C39.9281 22.6202 39.6881 22.8302 39.5081 23.1002C39.2081 23.6102 38.9681 24.1502 38.9081 24.7202C38.8781 25.0502 39.0581 25.2602 39.2381 25.5002C39.5381 25.8602 39.7481 26.2802 39.8981 26.7302C39.8981 26.7602 39.8981 26.7902 39.9281 26.8202C40.1381 27.4202 40.1981 27.4502 40.7681 27.1502C41.5781 26.7302 42.4481 26.3702 43.1681 25.8302C44.4581 24.8402 45.8981 24.1802 47.3081 23.4002C47.6981 23.1902 48.0881 23.0402 48.3881 22.7102L48.6281 22.5002C48.9581 22.3202 49.3181 22.2902 49.4981 22.5902ZM38.6081 30.8402C39.2081 30.3302 39.7181 29.7902 39.5381 28.8902C39.4781 28.8602 39.4181 28.9202 39.3581 28.9502L38.0081 29.8202C37.5581 30.1202 37.0781 30.3902 36.6881 30.7802C36.1181 31.3202 35.7281 32.0402 34.9481 32.3402C35.6681 32.3402 36.3581 32.2502 36.9581 31.8002C37.4081 31.4102 37.8281 30.9602 38.4881 30.9002C38.5181 30.9002 38.5781 30.8702 38.6081 30.8402ZM62.0439 23.3102C62.2239 23.5502 62.0739 23.7902 61.8939 23.8802C61.5339 24.1502 61.1739 24.3302 60.8139 24.4802C59.4639 25.0502 58.2639 25.8602 57.0339 26.5202C55.6239 27.3002 54.1539 27.9302 52.5639 28.2902C52.2039 28.3502 51.8439 28.4702 51.4239 28.5602C50.0439 28.9802 48.6939 28.1102 48.5439 26.5502C48.4839 25.9202 48.2439 25.3502 48.5139 24.7202C48.5739 24.5702 48.5739 24.4202 48.6939 24.3302C49.3239 23.7302 49.5939 22.8902 50.0739 22.1702C50.8539 20.8202 52.0539 20.2502 53.5539 20.2802C54.1539 20.3102 54.3639 20.6702 54.3639 21.2702C54.3639 22.2602 53.7339 22.8902 53.2839 23.6102C52.9539 24.1502 52.4439 24.4802 51.8739 24.6902C51.6039 24.7802 51.5139 25.0502 51.3339 25.2902C51.1539 25.5902 50.8839 25.7702 50.5839 25.9202C50.1639 26.0702 49.7439 26.1302 49.4139 25.6202C49.2639 26.6402 49.5939 27.1502 50.4339 27.4202C51.5739 27.8102 52.7439 27.6602 53.8539 27.3002C54.6039 27.0602 55.2939 26.6102 55.9539 26.2202C56.9139 25.6202 57.9939 25.2602 58.9539 24.6602C59.6139 24.2102 60.2739 23.8202 60.8739 23.4302L61.4739 23.1302C61.7439 23.0102 61.9539 23.0102 62.0439 23.3102ZM52.6839 21.6302C51.8139 22.2902 50.9139 22.8002 50.2839 23.7002C50.6739 23.6102 51.0339 23.4602 51.2439 23.0102C51.2739 22.9502 51.3639 22.8902 51.3939 22.8302C51.7839 22.3802 52.3239 22.1402 52.6839 21.6302ZM74.4785 24.2702C74.6285 24.3902 74.7485 24.6902 74.4485 25.0202C74.0585 25.3202 73.7285 25.7102 73.2485 25.7702C73.1585 25.7702 73.1585 25.9502 73.0985 26.0402C72.9785 26.5502 72.5585 26.8802 72.1385 27.1802C71.7785 27.4202 71.4485 27.7802 71.0885 28.0502C70.5785 28.5602 69.9485 28.8602 69.2885 28.8002C68.7485 28.7702 68.5985 28.5302 68.4485 27.9602C68.2985 27.0902 68.4485 26.3102 68.6585 25.4702C68.9285 24.3902 69.1385 23.2502 69.3785 22.2002C69.4685 21.8102 69.4385 21.3902 69.4685 20.9702C69.0485 21.2102 68.7485 21.5102 68.4485 21.8402C67.7285 22.5602 67.3085 23.4902 66.8285 24.4202C65.9885 26.0402 65.0585 27.6002 64.2485 29.2502C63.9485 29.7902 63.7385 30.4802 63.4985 31.0502C62.3585 33.4802 61.5185 36.0602 60.4085 38.4902C59.9585 39.4202 59.8085 40.4702 59.4185 41.4302C58.9685 42.6902 58.5485 43.9502 58.3085 45.3002C58.0685 46.6802 57.5285 48.0002 57.1685 49.3202C57.0485 49.8302 56.6885 50.1002 56.2985 50.3402C56.0885 50.4902 55.8185 50.5502 55.5785 50.2802C55.3685 50.0402 55.3685 49.7402 55.4285 49.4402C55.7585 47.8802 56.1785 46.3502 56.4785 44.7902C56.7185 43.5302 57.0485 42.2102 57.5585 41.0402C57.8885 40.2602 58.1285 39.5102 58.2485 38.7002C58.3685 38.1002 58.4585 37.5602 58.6985 37.0202C59.0285 36.3002 59.1185 35.5202 59.3585 34.8002C59.4785 34.2302 59.7485 33.7202 59.9585 33.1502C60.4085 31.6502 60.7385 30.1802 61.1585 28.6802C61.3985 27.7502 61.7285 26.9102 62.0285 26.0702C62.1485 25.6502 62.2985 25.2302 62.2385 24.7802C62.2085 24.1802 62.5085 23.6402 62.7485 23.1002C63.1985 22.1102 63.4985 21.0002 63.8885 19.9502C64.0085 19.7102 64.0385 19.5002 64.1585 19.3202C64.6985 18.3302 64.9685 17.2202 65.2985 16.0802L65.8085 14.4602C65.9285 14.1302 66.2885 13.8902 66.5585 14.0102C66.8585 14.1602 67.0085 14.6102 66.9185 14.9102C66.5885 15.7802 66.4085 16.6802 65.9885 17.4602C65.6585 18.1502 65.5385 18.8402 65.3285 19.5902C65.0885 20.4902 64.7585 21.4202 64.4585 22.3202L63.6185 24.9302C63.5885 25.0202 63.5585 25.1402 63.4685 25.1402C62.8985 25.5902 62.8385 26.4002 62.6585 27.0302C62.2685 28.5302 61.7885 29.9402 61.3085 31.3502C60.9785 32.4302 60.6785 33.5102 60.3785 34.5902C59.9885 36.0002 59.5685 37.4102 58.9985 38.7602C58.4885 40.0502 58.2785 41.3702 57.9485 42.6902L57.6485 43.8302C57.8585 43.5302 57.9485 43.1102 58.0385 42.7202C58.3985 41.4602 58.8485 40.2302 59.3285 39.0602C59.9285 37.6802 60.2885 36.2102 60.9185 34.9202L62.7785 30.7802C63.0485 30.2702 63.3485 29.8202 63.6185 29.3102C64.2485 28.2602 64.6985 27.1202 65.1785 25.9802C66.1985 23.7302 67.6385 21.8102 69.1385 20.0402L69.3785 19.7702C69.6485 19.4102 70.0985 19.2002 70.3385 19.3802C70.6985 19.5902 70.7885 20.0102 70.7585 20.3702C70.7585 21.0002 70.6385 21.6002 70.4885 22.2002C70.1585 23.4302 70.1285 24.7202 69.9185 25.9802L69.8585 27.3902C69.8285 27.6002 69.8885 27.6902 70.0985 27.6002C70.6085 27.3602 71.0285 27.0602 71.4185 26.5802C71.6585 26.2802 72.0185 25.9802 72.3485 25.8002C72.5285 25.7402 72.6485 25.6202 72.7385 25.4702C73.0085 25.0202 73.5185 24.7802 73.8185 24.3302C74.0585 23.9702 74.3585 24.0602 74.4785 24.2702ZM90.9316 26.3102C91.1416 26.4602 91.1416 26.6702 90.9316 26.9702C90.0016 28.2302 88.8616 29.3702 87.5116 30.2702C86.8516 30.6902 85.9516 30.7502 85.2616 30.3002C84.8416 30.0302 84.4516 29.6102 84.4816 29.1602C84.5416 27.7802 84.6316 26.4002 84.9316 25.0502C85.0816 24.5102 85.2916 23.9702 85.4716 23.4602C85.5016 23.3702 85.5616 23.3102 85.5616 23.2202C85.5016 22.4102 85.8616 21.6602 86.0116 20.9102C86.0116 20.8502 86.0716 20.7302 85.9816 20.6702C85.9216 20.6102 85.8316 20.7002 85.7416 20.7302C85.0216 21.0602 84.4516 21.5702 83.8516 22.0802C83.4316 22.4402 82.9216 22.7402 82.5916 23.2202C82.1716 23.8202 81.6316 24.3302 81.1216 24.8702C80.2216 25.8002 79.3216 26.7002 78.6016 27.7802C78.0616 28.6202 77.3416 29.3402 76.7416 30.1202C76.0816 31.0202 75.3316 31.8602 74.6716 32.7302C74.2816 33.3602 73.7716 33.9002 73.2316 34.3802C72.9616 34.6202 72.2416 34.5002 72.1216 34.2002C72.0616 34.0202 72.0316 33.8102 72.0916 33.6302C72.3916 32.3102 72.8716 31.0202 73.2316 29.7002C73.7716 27.7502 74.5216 25.8902 75.2416 24.0002C75.8116 22.5002 76.5016 21.0602 77.1316 19.5902L78.3316 16.7402C78.6616 15.8702 79.0816 15.0302 79.5316 14.2502C79.5916 14.1002 79.6216 13.9802 79.6516 13.8302C78.9316 14.4002 78.6616 15.1502 78.0916 15.9302C77.5516 16.6502 77.0416 17.3702 76.3516 17.9402C76.1116 18.1502 75.7516 18.2402 75.4216 18.2702C75.2116 18.3002 74.7316 17.7602 74.7316 17.5202C74.7316 17.1302 74.8816 16.7702 75.2116 16.5602C75.7816 16.2002 76.2616 15.8102 76.7716 15.3602C77.1016 15.0302 77.5216 14.8202 77.8816 14.4902C78.0616 14.3102 78.2116 14.1902 78.3016 13.9802C78.6916 13.1702 79.3216 12.5402 79.8616 11.8802C80.5216 11.1302 81.3016 10.4402 81.8116 9.51019C82.3516 8.64019 82.6816 7.65019 83.0716 6.72019C83.7616 5.01019 84.4216 3.30019 85.3516 1.68019C85.6516 1.14019 86.0716 0.690193 86.5516 0.300195C86.7316 0.120193 86.9716 0.000193238 87.2416 0.120193C87.6016 0.240194 87.6916 0.330194 87.6316 0.720195C87.5716 0.990195 87.4816 1.32019 87.3616 1.56019C86.8816 2.64019 86.4916 3.75019 85.7416 4.62019C84.9316 5.61019 84.3616 6.69019 83.7916 7.7702C83.4616 8.40019 83.0716 9.06019 82.6216 9.66019C82.3216 10.0802 82.1716 10.6202 81.9016 11.1002C81.5716 11.8502 81.1516 12.6002 80.8816 13.4102C80.7016 13.8302 80.2816 14.1902 80.1316 14.6702C79.8016 15.9902 79.0516 17.1302 78.5416 18.3602C78.0316 19.5002 77.4316 20.6102 76.9516 21.7802C76.2016 23.8802 75.3316 25.8902 74.5516 28.0202C74.1616 29.1302 73.8016 30.2402 73.5016 31.4102C73.3516 31.8602 73.3216 32.4002 73.2616 32.8802C73.4116 32.9102 73.5016 32.7902 73.5916 32.7002C74.2516 32.1602 74.7016 31.4702 75.1516 30.7802C75.6316 30.0602 76.1716 29.4302 76.7116 28.8002C76.9516 28.4702 77.2516 28.1702 77.4916 27.8402C77.8816 27.2702 78.4516 26.9102 78.9016 26.4002L81.0916 23.9102C81.5416 23.3702 82.1416 22.9802 82.5916 22.4702C83.2216 21.7802 83.8516 21.1202 84.6316 20.6102C85.1416 20.3102 85.7116 20.0702 86.2516 19.7702C86.6116 19.6202 87.0316 19.8902 87.0616 20.3102C87.1216 21.2702 87.1216 22.2002 86.4916 23.0402C86.2816 23.3402 86.1616 23.6402 86.1316 23.9702C86.0416 24.7802 85.7716 25.5302 85.5016 26.3102C85.2616 27.0902 85.2016 27.9302 85.2916 28.8002V29.0402C85.3216 29.5802 85.6216 29.9102 86.1616 29.9702C86.7016 30.0002 87.1816 29.7902 87.6016 29.5202C87.7816 29.4302 87.9316 29.3402 88.0516 29.2202C88.5916 28.5602 89.1616 27.9602 89.6416 27.2702L90.3316 26.4302C90.5116 26.2802 90.7216 26.1302 90.9316 26.3102ZM85.5316 3.06019C85.3816 3.33019 85.2016 3.54019 85.1716 3.87019L86.2216 2.22019C86.4016 1.98019 86.5816 1.68019 86.6116 1.38019C86.1016 1.86019 85.8616 2.49019 85.5316 3.06019ZM84.6316 5.16019C84.8416 4.89019 84.9016 4.56019 84.9616 4.26019C84.7816 4.53019 84.6916 4.83019 84.6316 5.16019ZM100.211 24.2702C100.391 24.4202 100.301 24.5702 100.151 24.7502C99.9112 24.9902 99.6412 25.2602 99.3112 25.4102C98.9512 25.6202 98.6512 26.0102 98.3212 26.3402C97.3012 27.1802 96.3712 28.1102 95.3212 28.9502C94.6912 29.4902 94.0012 29.7902 93.2212 29.8802C92.5312 30.0002 91.7812 29.5802 91.5712 28.9202C91.4512 28.5602 91.3612 28.2002 91.3612 27.8102C91.4812 26.8202 91.6312 25.8302 92.0512 24.8702L92.4712 23.6702C92.8012 22.8002 93.1912 21.9302 93.9712 21.3002C94.1812 21.1802 94.6312 21.1802 94.8112 21.3002C95.0512 21.5102 95.1712 21.8702 95.0212 22.1402C94.9312 22.2902 94.8112 22.5002 94.6612 22.6502C94.1812 23.3402 93.5212 23.9702 93.1612 24.7502C92.7712 25.5002 92.4712 26.2502 92.2612 27.0602C92.2012 27.3902 92.2012 27.7802 92.2612 28.1702C92.3812 28.6502 92.7712 28.9502 93.3112 28.9202C94.0612 28.8902 94.7212 28.6202 95.3212 28.2302C96.2212 27.6002 97.0312 26.8202 97.8412 26.0702C98.0512 25.8302 98.2912 25.6202 98.5312 25.4402C98.6512 25.3502 98.7712 25.2902 98.8012 25.1402C99.0412 24.7802 99.3712 24.5102 99.7012 24.2402C99.8812 24.1202 100.061 24.1202 100.211 24.2702ZM95.2012 20.0102C94.8112 20.0102 94.5712 19.8002 94.4512 19.3802C94.3612 19.0202 94.4812 18.7502 94.7812 18.5702C95.0212 18.3602 95.3512 18.2702 95.5912 18.2102C95.8612 18.0902 96.1312 18.2402 96.3112 18.4202C96.4912 18.6302 96.4312 18.7802 96.3412 18.9902C96.1912 19.3202 95.9512 19.5602 95.7112 19.8302C95.5912 20.0102 95.3812 19.9502 95.2012 20.0102ZM113.063 23.0402C113.243 23.3102 113.123 23.4902 112.913 23.6402C112.403 23.9702 112.043 24.4202 111.563 24.8402C110.573 25.7402 110.213 26.1302 109.013 26.8202C108.413 27.1802 107.933 27.7202 107.363 28.1402C107.243 28.2602 107.093 28.4102 106.913 28.4402C105.803 28.9202 104.933 28.5602 104.903 27.2402C104.903 26.6702 104.933 26.1002 105.143 25.5602C105.353 24.9302 105.203 24.3002 105.203 23.6702C105.173 23.4302 105.143 23.1902 105.143 22.9802C105.113 22.7402 105.023 22.7402 104.813 22.8002C104.123 23.1002 103.553 23.5802 102.983 24.0302C101.963 24.7502 101.183 25.7402 100.313 26.6102C100.073 26.8802 99.8931 27.2102 99.6531 27.5402C99.4731 27.7802 99.2331 28.0502 99.0231 28.2602C98.6931 28.5302 98.6631 28.5602 98.3631 28.3502C98.0631 28.1102 98.0031 27.8402 98.2131 27.4202C98.5731 26.6702 98.9331 25.8902 99.3831 25.1402C100.013 24.0902 100.613 22.9502 101.363 21.9302C101.633 21.5702 101.813 21.4202 102.113 21.6602C102.443 21.8702 102.563 22.4102 102.323 22.7402C102.023 23.1002 101.843 23.5502 101.663 24.0302C101.903 23.9102 102.053 23.7602 102.203 23.6102C103.073 22.7702 104.093 22.1102 104.963 21.3002C105.203 21.0902 105.503 20.9102 105.833 20.9402C106.433 20.9702 106.733 21.3302 106.733 22.0502C106.733 22.6802 106.703 23.3102 106.463 23.8802C106.103 24.7202 106.073 25.5302 106.103 26.4002V26.5502C106.103 27.2402 106.223 27.3302 106.913 27.2102C107.573 27.1202 108.143 26.7302 108.593 26.2202C109.493 25.2602 109.883 24.9602 110.963 24.2102L112.523 23.0402C112.703 22.9502 112.913 22.8302 113.063 23.0402ZM125.964 23.3102C126.144 23.5502 125.994 23.7902 125.814 23.8802C125.454 24.1502 125.094 24.3302 124.734 24.4802C123.384 25.0502 122.184 25.8602 120.954 26.5202C119.544 27.3002 118.074 27.9302 116.484 28.2902C116.124 28.3502 115.764 28.4702 115.344 28.5602C113.964 28.9802 112.614 28.1102 112.464 26.5502C112.404 25.9202 112.164 25.3502 112.434 24.7202C112.494 24.5702 112.494 24.4202 112.614 24.3302C113.244 23.7302 113.514 22.8902 113.994 22.1702C114.774 20.8202 115.974 20.2502 117.474 20.2802C118.074 20.3102 118.284 20.6702 118.284 21.2702C118.284 22.2602 117.654 22.8902 117.204 23.6102C116.874 24.1502 116.364 24.4802 115.794 24.6902C115.524 24.7802 115.434 25.0502 115.254 25.2902C115.074 25.5902 114.804 25.7702 114.504 25.9202C114.084 26.0702 113.664 26.1302 113.334 25.6202C113.184 26.6402 113.514 27.1502 114.354 27.4202C115.494 27.8102 116.664 27.6602 117.774 27.3002C118.524 27.0602 119.214 26.6102 119.874 26.2202C120.834 25.6202 121.914 25.2602 122.874 24.6602C123.534 24.2102 124.194 23.8202 124.794 23.4302L125.394 23.1302C125.664 23.0102 125.874 23.0102 125.964 23.3102ZM116.604 21.6302C115.734 22.2902 114.834 22.8002 114.204 23.7002C114.594 23.6102 114.954 23.4602 115.164 23.0102C115.194 22.9502 115.284 22.8902 115.314 22.8302C115.704 22.3802 116.244 22.1402 116.604 21.6302Z" fill="#171717"/>
</svg>
